# xmcd
#
# Track frame offsets: 
#        225
#        15847
#        28562
#        46459
#        57638
#        72093
#        90217
#        107202
#        119108
#        131469
#        148667
#        164176
#        184262
#
# Disc length: 2664 seconds
#
# Revision: 0
# Processed by: cddbd v1.5.2PL0 Copyright (c) Steve Scherf et al.
# Submitted via: ExactAudioCopy v0.99pb5
#
DISCID=ba0a650d
DTITLE=Various Artist - Hot News - Charts 1996
DYEAR=1996
DGENRE=Country
TTITLE0=Round Up Company: American Honky Tonk Basr Association
TTITLE1=Salty Dogs: Homeland Waltz
TTITLE2=Tina and Country Time Special: Dark As A Dungeon
TTITLE3=Thierry Massoubre: High Level
TTITLE4=Steve Harrison: Reasons i stay
TTITLE5=Forty Niners: My Best Friend
TTITLE6=Thierry Massoubre: Cherokee Shuffle
TTITLE7=Steve Harrison: Red, White and Blue
TTITLE8=Forty Niners: Cause my baby want s to sleep
TTITLE9=Salty Dogs: You re Too Expensive for me
TTITLE10=Tina and Country Time Special: Dreamin Bout America
TTITLE11=Round Up Company: My Family
TTITLE12=Charts-Winners 1996: Hot New Song
EXTD=
EXTT0=
EXTT1=
EXTT2=
EXTT3=
EXTT4=
EXTT5=
EXTT6=
EXTT7=
EXTT8=
EXTT9=
EXTT10=
EXTT11=
EXTT12=
PLAYORDER=
